<?xml version="1.0" encoding="utf-8"?>
<!-- Generator: Adobe Illustrator 24.3.0, SVG Export Plug-In . SVG Version: 6.00 Build 0)  -->
<svg version="1.1" id="Layer_1" xmlns="http://www.w3.org/2000/svg" xmlns:xlink="http://www.w3.org/1999/xlink" x="0px" y="0px"
	 viewBox="0 0 1080 500" style="enable-background:new 0 0 1080 500;" xml:space="preserve">
<style type="text/css">
	.st0{fill:#00C551;}
</style>
<g>
	<g>
		<g>
			<g>
				<path d="M365.53,398.8V279.42h46.56c15.46,0,27.63,3.67,36.5,11s13.3,17.54,13.3,30.61c0,8.64-1.99,16.06-5.97,22.26
					c-3.98,6.2-9.67,10.94-17.05,14.24c-7.39,3.3-16.32,4.95-26.78,4.95h-37.18l7.67-7.84v44.17H365.53z M382.59,356.33l-7.67-8.36
					h36.67c10.92,0,19.19-2.36,24.81-7.08c5.63-4.72,8.44-11.34,8.44-19.87s-2.81-15.12-8.44-19.78c-5.63-4.66-13.9-6.99-24.81-6.99
					h-36.67l7.67-8.53V356.33z M445.35,398.8l-30.36-43.32h18.25l30.7,43.32H445.35z"/>
				<path d="M577.52,400.16c-9.1,0-17.54-1.54-25.33-4.61c-7.79-3.07-14.53-7.36-20.21-12.88c-5.69-5.51-10.12-11.96-13.3-19.36
					c-3.18-7.39-4.78-15.46-4.78-24.22c0-8.75,1.59-16.83,4.78-24.22c3.18-7.39,7.62-13.84,13.3-19.36
					c5.68-5.51,12.39-9.81,20.12-12.88c7.73-3.07,16.2-4.6,25.41-4.6c9.1,0,17.51,1.51,25.24,4.52c7.73,3.02,14.44,7.28,20.12,12.79
					c5.68,5.52,10.09,12,13.22,19.44c3.13,7.45,4.69,15.55,4.69,24.3c0,8.87-1.56,17-4.69,24.39c-3.13,7.39-7.53,13.84-13.22,19.36
					c-5.69,5.52-12.39,9.78-20.12,12.79C595.03,398.66,586.61,400.16,577.52,400.16z M577.35,384.98c6.71,0,12.88-1.13,18.5-3.41
					c5.63-2.27,10.51-5.48,14.67-9.63c4.15-4.15,7.39-9.01,9.72-14.58c2.33-5.57,3.5-11.65,3.5-18.25s-1.17-12.65-3.5-18.16
					c-2.33-5.51-5.57-10.37-9.72-14.58c-4.15-4.2-9.04-7.45-14.67-9.72c-5.63-2.27-11.8-3.41-18.5-3.41
					c-6.6,0-12.71,1.14-18.33,3.41c-5.63,2.28-10.55,5.52-14.75,9.72c-4.21,4.21-7.48,9.07-9.81,14.58
					c-2.33,5.52-3.5,11.57-3.5,18.16s1.16,12.68,3.5,18.25c2.33,5.57,5.6,10.43,9.81,14.58c4.21,4.15,9.12,7.36,14.75,9.63
					C564.64,383.85,570.75,384.98,577.35,384.98z"/>
				<path d="M735.78,400.16c-9.1,0-17.79-1.39-26.09-4.18c-8.3-2.78-14.84-6.39-19.61-10.83l6.31-13.3
					c4.55,3.98,10.34,7.28,17.4,9.89c7.05,2.62,14.38,3.92,22,3.92c6.93,0,12.56-0.79,16.88-2.39c4.32-1.59,7.5-3.78,9.55-6.57
					c2.05-2.78,3.07-5.94,3.07-9.46c0-4.09-1.34-7.39-4.01-9.89c-2.67-2.5-6.14-4.52-10.4-6.05s-8.95-2.87-14.07-4.01
					c-5.12-1.13-10.26-2.47-15.43-4.01c-5.17-1.54-9.89-3.5-14.16-5.88c-4.26-2.39-7.7-5.6-10.32-9.63
					c-2.62-4.04-3.92-9.24-3.92-15.61c0-6.14,1.62-11.79,4.86-16.97c3.24-5.17,8.24-9.32,15.01-12.45
					c6.76-3.13,15.38-4.69,25.84-4.69c6.93,0,13.81,0.91,20.64,2.73c6.82,1.82,12.73,4.43,17.74,7.84l-5.63,13.64
					c-5.12-3.41-10.52-5.88-16.2-7.42c-5.69-1.53-11.2-2.3-16.54-2.3c-6.71,0-12.22,0.85-16.54,2.56c-4.32,1.71-7.48,3.98-9.46,6.82
					c-1.99,2.84-2.99,6.03-2.99,9.55c0,4.21,1.34,7.56,4.01,10.06c2.67,2.5,6.14,4.49,10.4,5.97c4.26,1.48,8.95,2.81,14.07,4.01
					s10.26,2.53,15.43,4.01c5.17,1.48,9.89,3.41,14.16,5.8c4.26,2.39,7.7,5.57,10.32,9.55c2.61,3.98,3.92,9.1,3.92,15.35
					c0,6.03-1.65,11.63-4.95,16.8c-3.3,5.18-8.39,9.32-15.26,12.45C754.91,398.6,746.24,400.16,735.78,400.16z"/>
				<path d="M841.01,398.8V279.42h84.25v14.84h-67.19v89.71h69.58v14.84H841.01z M856.53,345.42v-14.5h61.4v14.5H856.53z"/>
				<path d="M1024.17,400.16c-9.1,0-17.79-1.39-26.09-4.18c-8.3-2.78-14.84-6.39-19.61-10.83l6.31-13.3
					c4.55,3.98,10.34,7.28,17.4,9.89c7.05,2.62,14.38,3.92,22,3.92c6.93,0,12.56-0.79,16.88-2.39c4.32-1.59,7.5-3.78,9.55-6.57
					c2.05-2.78,3.07-5.94,3.07-9.46c0-4.09-1.34-7.39-4.01-9.89c-2.67-2.5-6.14-4.52-10.4-6.05s-8.95-2.87-14.07-4.01
					c-5.12-1.13-10.26-2.47-15.43-4.01c-5.17-1.54-9.89-3.5-14.16-5.88c-4.26-2.39-7.7-5.6-10.32-9.63
					c-2.62-4.04-3.92-9.24-3.92-15.61c0-6.14,1.62-11.79,4.86-16.97c3.24-5.17,8.24-9.32,15.01-12.45
					c6.76-3.13,15.38-4.69,25.84-4.69c6.93,0,13.81,0.91,20.64,2.73c6.82,1.82,12.73,4.43,17.74,7.84l-5.63,13.64
					c-5.12-3.41-10.52-5.88-16.2-7.42c-5.69-1.53-11.2-2.3-16.54-2.3c-6.71,0-12.22,0.85-16.54,2.56c-4.32,1.71-7.48,3.98-9.46,6.82
					c-1.99,2.84-2.99,6.03-2.99,9.55c0,4.21,1.34,7.56,4.01,10.06c2.67,2.5,6.14,4.49,10.4,5.97c4.26,1.48,8.95,2.81,14.07,4.01
					s10.26,2.53,15.43,4.01c5.17,1.48,9.89,3.41,14.16,5.8c4.26,2.39,7.7,5.57,10.32,9.55c2.61,3.98,3.92,9.1,3.92,15.35
					c0,6.03-1.65,11.63-4.95,16.8c-3.3,5.18-8.39,9.32-15.26,12.45C1043.3,398.6,1034.63,400.16,1024.17,400.16z"/>
			</g>
		</g>
	</g>
	<g>
		<g>
			<path class="st0" d="M73.49,401.53c-9.1,0-17.54-1.54-25.33-4.6c-7.79-3.07-14.53-7.36-20.21-12.88
				c-5.69-5.51-10.12-11.96-13.3-19.36c-3.18-7.39-4.78-15.46-4.78-24.22c0-8.75,1.59-16.82,4.78-24.22
				c3.18-7.39,7.62-13.84,13.3-19.36c5.68-5.51,12.39-9.81,20.12-12.88c7.73-3.07,16.2-4.61,25.41-4.61
				c9.09,0,17.51,1.51,25.24,4.52c7.73,3.01,14.44,7.28,20.12,12.79c5.68,5.52,10.09,12,13.22,19.44c3.13,7.45,4.69,15.55,4.69,24.3
				c0,8.87-1.56,17-4.69,24.39c-3.13,7.39-7.53,13.84-13.22,19.36c-5.69,5.52-12.39,9.78-20.12,12.79
				C90.99,400.02,82.58,401.53,73.49,401.53z M73.32,386.35c6.71,0,12.88-1.13,18.5-3.41c5.63-2.27,10.52-5.48,14.67-9.64
				c4.15-4.15,7.39-9.01,9.72-14.58c2.33-5.57,3.5-11.65,3.5-18.25c0-6.59-1.17-12.65-3.5-18.16c-2.33-5.51-5.57-10.38-9.72-14.58
				c-4.15-4.21-9.04-7.45-14.67-9.72c-5.63-2.27-11.8-3.41-18.5-3.41c-6.6,0-12.71,1.14-18.33,3.41
				c-5.63,2.28-10.55,5.52-14.75,9.72c-4.21,4.21-7.48,9.07-9.81,14.58c-2.33,5.52-3.5,11.57-3.5,18.16c0,6.6,1.16,12.68,3.5,18.25
				c2.33,5.57,5.6,10.43,9.81,14.58c4.21,4.15,9.12,7.36,14.75,9.64C60.61,385.21,66.72,386.35,73.32,386.35z"/>
			<path class="st0" d="M162.85,400.16V280.78h84.25v14.84H179.9v104.54H162.85z M178.2,351.9v-14.67h61.57v14.67H178.2z"/>
		</g>
	</g>
	<g>
		<g>
			<path d="M61.87,222.17L8.01,61.03h23.71l49.49,148.71H69.24l51.33-148.71h21.18l50.18,148.71h-11.51l50.18-148.71h21.87
				l-53.87,161.14h-24.17L127.48,84.28h6.22L86.5,222.17H61.87z"/>
			<path d="M341.56,222.17V61.03h23.02v161.14H341.56z"/>
			<path d="M470.47,222.17V61.03h18.88l106.58,132.36h-9.9V61.03h23.02v161.14h-18.88L483.59,89.8h9.9v132.36H470.47z"/>
			<path d="M714.94,222.17V61.03h67.91c17.19,0,32.34,3.38,45.46,10.13c13.12,6.75,23.33,16.19,30.62,28.31
				c7.29,12.12,10.93,26.17,10.93,42.13c0,15.96-3.65,30-10.93,42.13c-7.29,12.12-17.5,21.56-30.62,28.31
				c-13.12,6.75-28.28,10.13-45.46,10.13H714.94z M737.96,202.14h43.51c13.35,0,24.9-2.53,34.65-7.6
				c9.74-5.06,17.3-12.16,22.67-21.29c5.37-9.13,8.06-19.68,8.06-31.65c0-12.12-2.69-22.71-8.06-31.77
				c-5.37-9.05-12.93-16.11-22.67-21.18c-9.75-5.06-21.29-7.6-34.65-7.6h-43.51V202.14z"/>
			<path d="M1009.59,224.01c-12.28,0-24.02-1.88-35.22-5.64c-11.2-3.76-20.03-8.63-26.47-14.62l8.52-17.96
				c6.14,5.37,13.96,9.82,23.48,13.35c9.51,3.53,19.41,5.29,29.7,5.29c9.36,0,16.96-1.07,22.79-3.22c5.83-2.15,10.13-5.1,12.89-8.86
				c2.76-3.76,4.14-8.02,4.14-12.78c0-5.52-1.81-9.97-5.41-13.35c-3.61-3.37-8.29-6.1-14.04-8.17s-12.08-3.87-18.99-5.41
				c-6.91-1.53-13.85-3.34-20.83-5.41c-6.99-2.07-13.35-4.72-19.11-7.94c-5.75-3.22-10.4-7.56-13.93-13.01
				c-3.53-5.45-5.29-12.47-5.29-21.06c0-8.29,2.19-15.92,6.56-22.9c4.37-6.98,11.12-12.58,20.26-16.8
				c9.13-4.22,20.75-6.33,34.88-6.33c9.36,0,18.65,1.23,27.85,3.68c9.21,2.46,17.19,5.99,23.94,10.59l-7.6,18.42
				c-6.91-4.6-14.2-7.94-21.87-10.01c-7.68-2.07-15.12-3.11-22.33-3.11c-9.06,0-16.5,1.15-22.33,3.45
				c-5.83,2.3-10.09,5.37-12.78,9.21c-2.69,3.84-4.03,8.14-4.03,12.89c0,5.68,1.8,10.21,5.41,13.58c3.6,3.38,8.29,6.06,14.04,8.06
				c5.75,2,12.08,3.8,18.99,5.41c6.91,1.61,13.85,3.42,20.83,5.41c6.98,2,13.35,4.6,19.11,7.83c5.75,3.22,10.39,7.52,13.93,12.89
				c3.53,5.37,5.29,12.28,5.29,20.72c0,8.14-2.23,15.69-6.68,22.67c-4.45,6.99-11.32,12.59-20.6,16.8
				C1035.41,221.9,1023.71,224.01,1009.59,224.01z"/>
		</g>
	</g>
</g>
</svg>
