<?xml version="1.0" encoding="utf-8"?>
<!-- Generator: Adobe Illustrator 24.3.0, SVG Export Plug-In . SVG Version: 6.00 Build 0)  -->
<svg version="1.1" id="Layer_1" xmlns="http://www.w3.org/2000/svg" xmlns:xlink="http://www.w3.org/1999/xlink" x="0px" y="0px"
	 viewBox="0 0 1080 1080" style="enable-background:new 0 0 1080 1080;" xml:space="preserve">
<style type="text/css">
		.st0{fill:url(#gradient1);}
</style>
<defs>
	<linearGradient id="gradient1" x1="0%" y1="0%" x2="100%" y2="100%">
		<stop offset="0%" style="stop-color:#10B981"/>
		<stop offset="100%" style="stop-color:#059669"/>
	</linearGradient>
</defs>
<g>
	<g>
		<g>
			<g>
				<path d="M380.31,643.52v-78.49h30.61c10.17,0,18.17,2.41,24,7.23c5.83,4.82,8.75,11.53,8.75,20.13c0,5.68-1.31,10.56-3.92,14.63
					c-2.62,4.08-6.35,7.2-11.21,9.36c-4.86,2.17-10.73,3.25-17.6,3.25h-24.44l5.05-5.16v29.04H380.31z M391.53,615.6l-5.05-5.49
					h24.11c7.18,0,12.61-1.55,16.32-4.65c3.7-3.1,5.55-7.46,5.55-13.06s-1.85-9.94-5.55-13.01c-3.7-3.06-9.14-4.6-16.32-4.6h-24.11
					l5.05-5.61V615.6z M432.79,643.52l-19.96-28.48h12l20.18,28.48H432.79z"/>
				<path d="M519.69,644.42c-5.98,0-11.53-1.01-16.65-3.03c-5.12-2.02-9.55-4.84-13.29-8.47c-3.74-3.62-6.65-7.87-8.75-12.73
					c-2.09-4.86-3.14-10.17-3.14-15.92c0-5.76,1.05-11.06,3.14-15.92c2.09-4.86,5.01-9.1,8.75-12.73c3.74-3.62,8.15-6.45,13.23-8.47
					c5.08-2.02,10.65-3.03,16.71-3.03c5.98,0,11.51,0.99,16.6,2.97c5.08,1.98,9.49,4.79,13.23,8.41c3.74,3.63,6.63,7.89,8.69,12.78
					c2.05,4.9,3.08,10.22,3.08,15.98c0,5.83-1.03,11.18-3.08,16.04c-2.06,4.86-4.95,9.1-8.69,12.73c-3.74,3.63-8.15,6.43-13.23,8.41
					C531.2,643.43,525.67,644.42,519.69,644.42z M519.58,634.44c4.41,0,8.47-0.75,12.17-2.24c3.7-1.49,6.91-3.61,9.64-6.34
					c2.73-2.73,4.86-5.92,6.39-9.59c1.53-3.66,2.3-7.66,2.3-12c0-4.33-0.77-8.32-2.3-11.94c-1.53-3.62-3.66-6.82-6.39-9.59
					c-2.73-2.76-5.94-4.9-9.64-6.39c-3.7-1.49-7.76-2.24-12.17-2.24c-4.34,0-8.35,0.75-12.05,2.24c-3.7,1.5-6.93,3.63-9.7,6.39
					c-2.77,2.77-4.92,5.96-6.45,9.59c-1.53,3.63-2.3,7.61-2.3,11.94c0,4.34,0.77,8.34,2.3,12c1.53,3.66,3.68,6.86,6.45,9.59
					c2.76,2.73,6,4.84,9.7,6.34C511.23,633.69,515.24,634.44,519.58,634.44z"/>
				<path d="M623.75,644.42c-5.98,0-11.7-0.92-17.16-2.75c-5.46-1.83-9.75-4.2-12.89-7.12l4.15-8.75c2.99,2.62,6.8,4.79,11.44,6.5
					c4.63,1.72,9.46,2.58,14.46,2.58c4.56,0,8.26-0.52,11.1-1.57c2.84-1.05,4.93-2.48,6.28-4.32c1.35-1.83,2.02-3.91,2.02-6.22
					c0-2.69-0.88-4.86-2.64-6.5c-1.76-1.64-4.04-2.97-6.84-3.98c-2.8-1.01-5.89-1.89-9.25-2.63c-3.36-0.75-6.75-1.63-10.15-2.64
					c-3.4-1.01-6.5-2.3-9.31-3.87c-2.8-1.57-5.06-3.68-6.78-6.34c-1.72-2.65-2.58-6.07-2.58-10.26c0-4.04,1.07-7.75,3.2-11.16
					c2.13-3.4,5.42-6.13,9.87-8.19c4.45-2.05,10.11-3.08,16.99-3.08c4.56,0,9.08,0.6,13.57,1.79c4.49,1.2,8.37,2.92,11.66,5.16
					l-3.7,8.97c-3.36-2.24-6.92-3.87-10.65-4.88c-3.74-1.01-7.36-1.51-10.88-1.51c-4.41,0-8.04,0.56-10.88,1.68
					c-2.84,1.12-4.92,2.62-6.22,4.49c-1.31,1.87-1.96,3.96-1.96,6.28c0,2.77,0.88,4.97,2.64,6.62c1.75,1.65,4.04,2.95,6.84,3.92
					c2.8,0.97,5.89,1.85,9.25,2.63c3.36,0.79,6.75,1.67,10.15,2.64c3.4,0.97,6.5,2.24,9.31,3.81c2.8,1.57,5.06,3.66,6.78,6.28
					c1.72,2.62,2.58,5.98,2.58,10.09c0,3.96-1.08,7.64-3.25,11.04c-2.17,3.4-5.51,6.13-10.04,8.19
					C636.33,643.39,630.63,644.42,623.75,644.42z"/>
				<path d="M692.93,643.52v-78.49h55.39v9.76h-44.18v58.98h45.75v9.76H692.93z M703.14,608.42v-9.53h40.37v9.53H703.14z"/>
				<path d="M813.36,644.42c-5.98,0-11.7-0.92-17.16-2.75c-5.46-1.83-9.75-4.2-12.89-7.12l4.15-8.75c2.99,2.62,6.8,4.79,11.44,6.5
					c4.63,1.72,9.46,2.58,14.46,2.58c4.56,0,8.26-0.52,11.1-1.57c2.84-1.05,4.93-2.48,6.28-4.32c1.35-1.83,2.02-3.91,2.02-6.22
					c0-2.69-0.88-4.86-2.64-6.5c-1.76-1.64-4.04-2.97-6.84-3.98c-2.8-1.01-5.89-1.89-9.25-2.63c-3.36-0.75-6.75-1.63-10.15-2.64
					c-3.4-1.01-6.5-2.3-9.31-3.87c-2.8-1.57-5.06-3.68-6.78-6.34c-1.72-2.65-2.58-6.07-2.58-10.26c0-4.04,1.07-7.75,3.2-11.16
					c2.13-3.4,5.42-6.13,9.87-8.19c4.45-2.05,10.11-3.08,16.99-3.08c4.56,0,9.08,0.6,13.57,1.79c4.49,1.2,8.37,2.92,11.66,5.16
					l-3.7,8.97c-3.36-2.24-6.92-3.87-10.65-4.88c-3.74-1.01-7.36-1.51-10.88-1.51c-4.41,0-8.04,0.56-10.88,1.68
					c-2.84,1.12-4.92,2.62-6.22,4.49c-1.31,1.87-1.96,3.96-1.96,6.28c0,2.77,0.88,4.97,2.64,6.62c1.75,1.65,4.04,2.95,6.84,3.92
					c2.8,0.97,5.89,1.85,9.25,2.63c3.36,0.79,6.75,1.67,10.15,2.64c3.4,0.97,6.5,2.24,9.31,3.81c2.8,1.57,5.06,3.66,6.78,6.28
					c1.72,2.62,2.58,5.98,2.58,10.09c0,3.96-1.08,7.64-3.25,11.04c-2.17,3.4-5.51,6.13-10.04,8.19
					C825.94,643.39,820.24,644.42,813.36,644.42z"/>
			</g>
		</g>
	</g>
	<g>
		<g>
			<path class="st0" d="M188.3,645.31c-5.98,0-11.53-1.01-16.65-3.03c-5.12-2.02-9.55-4.84-13.29-8.47
				c-3.74-3.62-6.65-7.87-8.75-12.73c-2.09-4.86-3.14-10.17-3.14-15.92c0-5.76,1.05-11.06,3.14-15.92c2.09-4.86,5.01-9.1,8.75-12.73
				c3.74-3.62,8.15-6.45,13.23-8.47c5.08-2.02,10.65-3.03,16.71-3.03c5.98,0,11.51,0.99,16.6,2.97c5.08,1.98,9.49,4.79,13.23,8.41
				c3.74,3.63,6.63,7.89,8.69,12.78c2.06,4.9,3.08,10.22,3.08,15.98c0,5.83-1.03,11.18-3.08,16.04c-2.06,4.86-4.95,9.1-8.69,12.73
				c-3.74,3.63-8.15,6.43-13.23,8.41C199.81,644.32,194.28,645.31,188.3,645.31z M188.19,635.33c4.41,0,8.47-0.75,12.17-2.24
				c3.7-1.49,6.91-3.61,9.64-6.34c2.73-2.73,4.86-5.92,6.39-9.59c1.53-3.66,2.3-7.66,2.3-12c0-4.33-0.77-8.32-2.3-11.94
				c-1.53-3.62-3.66-6.82-6.39-9.59c-2.73-2.76-5.94-4.9-9.64-6.39c-3.7-1.49-7.76-2.24-12.17-2.24c-4.34,0-8.35,0.75-12.05,2.24
				c-3.7,1.5-6.93,3.63-9.7,6.39c-2.77,2.77-4.92,5.96-6.45,9.59c-1.53,3.63-2.3,7.61-2.3,11.94c0,4.34,0.77,8.34,2.3,12
				c1.53,3.66,3.68,6.86,6.45,9.59c2.76,2.73,6,4.84,9.7,6.34C179.83,634.59,183.85,635.33,188.19,635.33z"/>
			<path class="st0" d="M247.05,644.42v-78.49h55.39v9.76h-44.18v68.74H247.05z M257.15,612.68v-9.64h40.48v9.64H257.15z"/>
		</g>
	</g>
	<g>
		<g>
			<path d="M180.66,527.38l-35.42-105.95h15.59l32.54,97.77h-7.87l33.75-97.77h13.92l32.99,97.77h-7.57l32.99-97.77h14.38
				l-35.42,105.95h-15.89l-30.88-90.66h4.09l-31.03,90.66H180.66z"/>
			<path d="M364.56,527.38V421.44h15.14v105.95H364.56z"/>
			<path d="M449.31,527.38V421.44h12.41l70.08,87.03h-6.51v-87.03h15.14v105.95h-12.41l-70.08-87.03h6.51v87.03H449.31z"/>
			<path d="M610.05,527.38V421.44h44.65c11.3,0,21.27,2.22,29.89,6.66c8.63,4.44,15.34,10.65,20.13,18.62
				c4.79,7.97,7.19,17.2,7.19,27.7c0,10.5-2.4,19.73-7.19,27.7c-4.79,7.97-11.5,14.18-20.13,18.62c-8.63,4.44-18.59,6.66-29.89,6.66
				H610.05z M625.18,514.22h28.61c8.78,0,16.37-1.67,22.78-4.99c6.41-3.33,11.38-8,14.91-14c3.53-6,5.3-12.94,5.3-20.81
				c0-7.97-1.77-14.93-5.3-20.89c-3.53-5.95-8.5-10.59-14.91-13.92c-6.41-3.33-14-4.99-22.78-4.99h-28.61V514.22z"/>
			<path d="M803.78,528.59c-8.07,0-15.79-1.23-23.16-3.71c-7.37-2.47-13.17-5.68-17.41-9.61l5.6-11.81
				c4.03,3.53,9.18,6.46,15.44,8.78c6.26,2.32,12.76,3.48,19.52,3.48c6.15,0,11.15-0.7,14.98-2.12c3.83-1.41,6.66-3.35,8.48-5.83
				c1.82-2.47,2.72-5.27,2.72-8.4c0-3.63-1.19-6.56-3.56-8.78c-2.37-2.22-5.45-4.01-9.23-5.37c-3.78-1.36-7.95-2.55-12.49-3.56
				c-4.54-1.01-9.11-2.19-13.7-3.56c-4.59-1.36-8.78-3.1-12.56-5.22c-3.78-2.12-6.84-4.97-9.16-8.55c-2.32-3.58-3.48-8.2-3.48-13.85
				c0-5.45,1.44-10.47,4.31-15.06c2.88-4.59,7.31-8.27,13.32-11.05c6-2.77,13.65-4.16,22.93-4.16c6.15,0,12.26,0.81,18.31,2.42
				c6.05,1.62,11.3,3.94,15.74,6.96l-5,12.11c-4.54-3.03-9.33-5.22-14.38-6.58c-5.05-1.36-9.94-2.04-14.68-2.04
				c-5.96,0-10.85,0.76-14.68,2.27c-3.84,1.51-6.64,3.53-8.4,6.05c-1.77,2.52-2.65,5.35-2.65,8.48c0,3.73,1.18,6.71,3.56,8.93
				c2.37,2.22,5.45,3.99,9.23,5.3c3.78,1.31,7.95,2.5,12.49,3.56c4.54,1.06,9.11,2.25,13.7,3.56c4.59,1.31,8.78,3.03,12.56,5.15
				c3.78,2.12,6.83,4.94,9.16,8.48c2.32,3.53,3.48,8.07,3.48,13.62c0,5.35-1.46,10.32-4.39,14.91c-2.93,4.59-7.44,8.27-13.55,11.05
				C820.75,527.21,813.06,528.59,803.78,528.59z"/>
		</g>
	</g>
</g>
<g>
	<g>
		<path class="st0" d="M570.2,989.41c12.8-3.39,25.47-7.05,38.01-10.98c12.52-4,24.91-8.28,37.12-12.98
			c24.42-9.35,48.12-20.22,70.85-32.69c22.7-12.52,44.43-26.6,64.83-42.35c10.25-7.81,20.06-16.17,29.58-24.81l3.57-3.25l1.78-1.62
			l1.74-1.68l6.94-6.7c4.49-4.6,9.05-9.16,13.37-13.85c17.37-18.79,33.21-39.46,47.73-60.84c1.8-2.67,3.59-5.36,5.31-8.04l1.27-1.99
			l0.59-0.94l0.62-1.04l2.47-4.15c0.81-1.39,1.67-2.75,2.47-4.15l2.4-4.19c1.63-2.78,3.15-5.62,4.68-8.45
			c6.07-11.36,11.76-22.95,16.83-34.83c2.51-5.95,5.03-11.91,7.3-17.99c2.3-6.06,4.51-12.17,6.63-18.34
			c2.13-6.17,4.12-12.42,6.16-18.7c2.01-6.21,3.85-12.46,5.65-18.72c3.51-12.54,6.5-25.22,8.86-38.08
			c2.38-12.86,4.14-25.91,5.7-39.06l0-0.01c0.21-1.78,1.83-3.05,3.6-2.84c1.6,0.19,2.79,1.52,2.86,3.08
			c0.59,13.36,0.66,26.81-0.21,40.29c-0.79,13.48-2.53,26.95-4.91,40.27c-1.21,6.66-2.61,13.27-4.1,19.86
			c-1.47,6.51-3.08,13.03-4.77,19.57c-0.84,3.27-1.74,6.53-2.64,9.79c-0.96,3.25-1.88,6.51-2.91,9.75l-1.52,4.86l-1.6,4.84
			c-1.04,3.24-2.21,6.43-3.35,9.64c-4.68,12.79-9.97,25.39-15.96,37.66c-1.49,3.07-2.99,6.14-4.58,9.16
			c-1.57,3.03-3.12,6.08-4.81,9.04l-2.49,4.48l-0.62,1.12l-0.69,1.19l-1.34,2.25c-1.77,2.96-3.57,5.85-5.39,8.73
			c-14.63,22.93-30.9,44.74-49.47,65c-4.61,5.12-9.48,9.89-14.29,14.75l-7.42,7.07l-1.86,1.77l-1.9,1.71l-3.81,3.43l-3.81,3.42
			l-3.92,3.3c-2.63,2.18-5.19,4.44-7.89,6.53l-8.03,6.36l-8.19,6.15c-22.09,16.03-45.55,30.11-70.08,41.77
			c-24.53,11.67-49.99,21.16-76,28.32c-26.01,7.12-52.52,12.15-79.2,14.5c-1.79,0.16-3.36-1.16-3.52-2.95
			C567.66,991.23,568.7,989.8,570.2,989.41z"/>
	</g>
	<g>
		<path class="st0" d="M889.72,294.51c-26.16-28.79-54.92-54.89-85.28-78.22c-15.2-11.66-30.86-22.58-46.93-32.67
			c-8.01-5.09-16.22-9.83-24.43-14.5l-12.44-6.75l-12.62-6.34c-16.92-8.23-34.24-15.43-51.82-21.66l-13.26-4.43
			c-4.45-1.38-8.94-2.59-13.4-3.9l-3.35-0.98l-1.67-0.48l-1.69-0.41l-6.77-1.64c-4.52-1.07-9-2.3-13.57-3.11l-13.64-2.71
			l-13.74-2.09l-3.43-0.53l-1.72-0.26l-1.73-0.18l-6.91-0.7l-6.9-0.74l-3.45-0.37c-1.15-0.1-2.31-0.14-3.46-0.21l-13.86-0.78
			c-1.16-0.05-2.31-0.18-3.47-0.17l-3.47-0.03l-6.94-0.06c-9.25-0.28-18.54,0.32-27.81,0.6c-18.53,1.26-36.98,3.57-55.24,7.03
			c-18.21,3.71-36.2,8.49-53.88,14.32l-13.13,4.73l-3.28,1.18c-1.09,0.42-2.16,0.88-3.24,1.31l-6.46,2.64l-6.47,2.63
			c-2.15,0.88-4.25,1.91-6.38,2.85l-6.36,2.89l-3.18,1.44l-1.59,0.72l-1.56,0.79l-12.48,6.31c-2.1,1.01-4.11,2.19-6.15,3.32
			l-6.11,3.41c-2.03,1.14-4.08,2.25-6.1,3.42l-5.97,3.66l-5.97,3.65l-2.99,1.82l-2.91,1.94l-11.64,7.78
			c-3.81,2.7-7.56,5.49-11.34,8.22c-3.83,2.68-7.43,5.66-11.11,8.54l-5.5,4.34l-1.38,1.09l-1.33,1.14l-2.66,2.28
			c-14.38,11.95-27.88,24.94-40.67,38.58l-4.77,5.14l-2.39,2.57l-2.29,2.66l-9.13,10.65c-5.8,7.33-11.74,14.57-17.12,22.22
			l-4.13,5.67c-1.39,1.88-2.62,3.87-3.94,5.8l-3.9,5.83l-1.95,2.91l-0.98,1.46l-0.91,1.5l-7.33,11.96c-1.26,1.97-2.34,4.04-3.5,6.07
			l-3.43,6.11c-1.13,2.05-2.33,4.05-3.4,6.13l-3.18,6.25c-2.09,4.18-4.34,8.28-6.2,12.57l-5.82,12.75l-5.29,12.97
			c-6.75,17.42-12.46,35.23-16.93,53.36l-2.98,13.68c-0.48,2.28-1.04,4.56-1.46,6.85l-1.15,6.91l-1.16,6.91
			c-0.38,2.31-0.82,4.6-1.05,6.93l-1.66,13.93c-0.33,2.32-0.46,4.65-0.63,6.99l-0.5,7l-0.51,7c-0.1,2.34-0.13,4.68-0.2,7.02
			l-0.19,7.03c-0.04,2.34-0.19,4.68-0.1,7.03l0.24,14.07c0.75,18.76,2.5,37.51,5.41,56.14c3.08,18.6,7.24,37.06,12.42,55.26
			l2.01,6.81c0.69,2.26,1.29,4.56,2.07,6.79l4.46,13.49l4.89,13.36c0.79,2.24,1.7,4.43,2.59,6.63l2.67,6.6
			c7.25,17.54,15.47,34.71,24.65,51.34c9.17,16.63,19.25,32.78,30.38,48.1c5.51,7.71,11.41,15.07,17.45,22.28
			c1.52,1.79,3.1,3.51,4.65,5.27c1.56,1.75,3.1,3.53,4.73,5.17l4.82,5.05c1.64,1.63,3.32,3.21,4.98,4.81
			c0.84,0.79,1.65,1.64,2.51,2.37l2.57,2.25c1.71,1.5,3.41,3.05,5.19,4.37l2.64,2.07l1.32,1.04l1.34,0.92l2.68,1.83l1.34,0.92
			c0.46,0.31,0.99,0.62,1.48,0.94c3.87,2.41,7.65,4.52,11.62,6.34c3.94,1.82,7.99,3.35,12.11,4.54c8.23,2.41,16.75,3.35,25.22,2.79
			c8.46-0.61,16.9-2.77,24.94-6.33c4.02-1.77,7.98-3.81,11.79-6.2c3.82-2.36,7.56-4.94,11.14-7.79
			c7.21-5.63,13.91-12.12,20.19-19.07c6.25-6.99,12.05-14.47,17.43-22.3c2.68-3.91,5.33-7.91,7.81-12
			c2.38-4.06,4.92-8.04,6.98-12.28c4.48-8.31,8.05-17.1,11.2-26.04l2.24-6.76l1.93-6.87l0.48-1.72l0.41-1.74l0.81-3.48l0.81-3.48
			l0.66-3.52c3.64-18.75,4.59-38.1,3.27-57.35l0-0.03c-0.12-1.78,1.22-3.33,3.01-3.45c1.71-0.12,3.19,1.12,3.43,2.79
			c1.35,9.83,2.19,19.77,2.26,29.74c0.08,9.97-0.52,19.97-1.81,29.91c-2.53,19.87-7.86,39.57-16.32,58.01
			c-1.97,4.68-4.44,9.11-6.77,13.63c-2.35,4.41-4.86,8.72-7.5,13.03c-5.28,8.58-11.07,16.9-17.47,24.84
			c-6.43,7.91-13.45,15.47-21.34,22.29c-3.91,3.44-8.1,6.63-12.46,9.62c-4.35,3.01-8.98,5.7-13.8,8.09
			c-9.63,4.8-20.27,8.14-31.28,9.45c-11.01,1.28-22.29,0.53-32.95-2.13c-5.34-1.3-10.55-3.03-15.57-5.1
			c-5.02-2.05-9.91-4.52-14.45-7.1c-0.56-0.32-1.09-0.61-1.66-0.96l-1.74-1.08l-3.47-2.17l-1.73-1.09l-1.62-1.16l-3.24-2.33
			c-2.21-1.52-4.2-3.18-6.24-4.82l-3.05-2.46c-1.03-0.81-1.95-1.7-2.93-2.55c-7.91-6.74-14.98-14.07-21.97-21.49
			c-6.8-7.54-13.43-15.22-19.6-23.21c-12.45-15.91-23.8-32.59-34.1-49.88c-10.29-17.3-19.57-35.19-27.86-53.55l-3.06-6.91
			c-1.02-2.3-2.06-4.6-2.97-6.95l-5.65-14.03l-5.2-14.22c-0.9-2.36-1.61-4.78-2.41-7.18l-2.34-7.2
			c-6.07-19.27-11.06-38.91-14.91-58.82c-3.67-19.95-6.18-40.14-7.4-60.46l-0.61-15.26c-0.15-2.54-0.05-5.09-0.07-7.64l0.03-7.64
			c0.02-2.55,0-5.1,0.06-7.65l0.38-7.64l0.38-7.64c0.13-2.55,0.22-5.1,0.51-7.64l1.47-15.25c0.2-2.55,0.61-5.07,0.97-7.6l1.1-7.59
			l1.1-7.59c0.41-2.52,0.95-5.02,1.42-7.53c0.98-5.02,1.93-10.04,2.98-15.05c4.54-19.95,10.45-39.57,17.51-58.76l5.55-14.29
			c2-4.7,4.07-9.37,6.11-14.06c1.96-4.72,4.33-9.25,6.53-13.86l3.36-6.89c1.13-2.29,2.4-4.51,3.59-6.77l3.64-6.74
			c1.23-2.24,2.37-4.53,3.72-6.7l7.84-13.16l0.98-1.64l1.04-1.6l2.09-3.21l4.18-6.42c1.42-2.12,2.74-4.31,4.23-6.38l4.43-6.25
			c5.78-8.42,12.14-16.41,18.39-24.49l9.82-11.75l2.46-2.93l2.57-2.84l5.14-5.68c13.8-15.04,28.3-29.49,43.95-42.64l2.89-2.51
			l1.45-1.25l1.49-1.2l5.98-4.8c4-3.18,7.92-6.46,12.08-9.43c4.12-3.03,8.2-6.1,12.35-9.09l12.69-8.62l3.18-2.15l3.26-2.03
			l6.51-4.06l6.52-4.05c2.2-1.3,4.44-2.54,6.66-3.81l6.68-3.79c2.23-1.26,4.43-2.56,6.73-3.7l13.66-7.03
			c18.41-9,37.35-16.91,56.76-23.6c19.47-6.5,39.32-11.83,59.45-15.96c20.18-3.89,40.59-6.5,61.1-7.93
			c10.27-0.36,20.53-1.05,30.85-0.69l7.73,0.1l3.86,0.05c1.29,0.01,2.57,0.14,3.86,0.21L551,67.7c1.28,0.1,2.57,0.16,3.85,0.28
			l3.84,0.45l7.68,0.91l7.67,0.95l1.92,0.24l1.9,0.33l3.81,0.66c5.08,0.89,10.16,1.74,15.22,2.68l15.06,3.43
			c19.96,4.96,39.64,11.06,58.58,18.87c18.95,7.76,37.29,16.81,54.92,26.95l13.06,7.84l12.74,8.31c8.38,5.69,16.62,11.55,24.6,17.74
			c16,12.3,31.17,25.57,45.45,39.63c1.78,1.76,3.59,3.49,5.32,5.3l5.21,5.41c3.5,3.57,6.84,7.3,10.22,10.97
			c3.36,3.69,6.57,7.53,9.85,11.28c3.18,3.85,6.42,7.63,9.47,11.58c6.24,7.77,12.12,15.82,17.8,23.97
			c5.61,8.22,11.02,16.54,15.84,25.3c0.87,1.57,0.29,3.55-1.28,4.42c-1.35,0.74-2.99,0.43-3.97-0.66L889.72,294.51z"/>
	</g>
	<path class="st0" d="M941.27,657.58c-6.49-16.41-15.5-30.78-29.64-41.46c-13.91-10.5-29.43-17.15-46.95-19.98
		c0.08,1.84,0.04,3.12,0.21,4.38c5.85,42.76,29.29,70.83,70.46,82.51c3.77,1.07,2.77,0.89,4.9,1.46 M874.25,606.45
		c14.16,4.18,26.84,10.52,37.56,20.4c13.95,12.84,21.14,29.34,25.25,47.93C902.81,666.03,880.3,641.23,874.25,606.45z"/>
	<path class="st0" d="M954.48,655.35c7.74-15.86,17.84-29.48,32.77-39.04c14.68-9.39,30.68-14.82,48.36-16.28
		c-0.22,1.83-0.28,3.11-0.55,4.35c-9.14,42.18-34.69,68.34-76.64,76.8c-3.84,0.78-2.83,0.67-5,1.07 M1025.27,609.57
		c-14.44,3.07-27.58,8.41-39.03,17.43c-14.9,11.72-23.35,27.61-28.89,45.83C992.17,666.76,1016.54,643.77,1025.27,609.57z"/>
	<g>
		<path class="st0" d="M1043.85,467.79c-1.75-25.89-9.16-50.48-18.93-74.38c-1.22-2.97-2.73-5.82-4.4-9.28
			c-10.5,6.27-20.36,12.17-30.21,18.03c-8.14-9.69-16.28-19.34-24.87-29.64c-8.88,10.54-16.9,20.15-24.83,29.6
			c-10.18-6.03-20.15-11.93-30.45-17.99c-10.46,22.51-17.42,44.94-21.41,68.31c-4.84,28.25-1.75,55.08,14.37,79.55
			c12.13,18.52,27.89,30.66,51.38,29.07c0.7-0.03,1.29,0.03,1.76,0.18c0.3,0.1,0.6,0.18,0.91,0.13h16.19v2.16h5.93
			c11.4-2.02,22.15-4.79,30.82-12.08C1035.95,529.59,1046.09,501.01,1043.85,467.79z M965.36,390.89
			c5.17,6.43,9.89,12.38,14.98,18.73c-5.09,4.19-9.85,8.14-14.86,12.34c-4.89-4.03-9.73-7.98-14.94-12.25
			C955.59,403.26,960.19,397.44,965.36,390.89z M964.99,547.01c-15.71,5.25-29.92,2.28-41.57-9.28
			c-17.83-17.67-25.4-39.65-24.75-64.61c0.53-19.13,8.67-53.33,17.38-71.69c14.49,8.55,27.85,17.95,40.18,28.82
			c11.89,10.5,22.8,21.86,29.52,36.4c7,15.14,10.71,31.06,7.74,47.88C990.56,531.01,980.79,541.72,964.99,547.01z M1007.25,537.81
			c-5.01,4.97-11.03,8.26-19.42,10.63c10.02-9.73,15.92-20.03,17.59-32.41c3.34-24.83-2.69-47.51-16.77-68.07
			c-4.11-6.03-9.08-11.48-14.53-18.28c13.15-9.44,26.38-18.97,39.73-28.58c1.06,1.14,1.71,1.51,1.91,2.08
			c9.45,24.43,16.73,49.38,16.37,75.84C1031.84,501.87,1023.49,521.65,1007.25,537.81z"/>
	</g>
</g>
</svg>
